<svg xmlns="http://www.w3.org/2000/svg" viewBox="0 0 280.22 70.02"><title>logo_ce_v2</title><g id="1cefe83d-5035-4186-929b-505b3877551b" data-name="Layer 2"><g id="2a3bce4b-ce14-46f3-9947-ccc596036582" data-name="Layer 1"><path d="M99.3,45.31A9,9,0,0,0,92.07,49H75.72A17.68,17.68,0,0,1,58,30.29a17.69,17.69,0,0,1,34.29-5.1.15.15,0,0,1,0,.18.19.19,0,0,1-.18.09H82.38a9,9,0,1,0,0,11.58h9.75A11.79,11.79,0,0,0,103.2,21.16a29.28,29.28,0,0,0-56.73,8.53A29,29,0,0,0,52.38,49H29.29a17.7,17.7,0,0,1,0-35.4l.78,0a9.05,9.05,0,0,0,7.83,4.5,9,9,0,0,0,8-13.16A9,9,0,0,0,33.75,1a9.42,9.42,0,0,0-1.66,1.11C31.16,2,30.22,2,29.29,2a29.29,29.29,0,0,0,0,58.58H92.74A9,9,0,1,0,99.3,45.31ZM75.46,35.65a4.4,4.4,0,1,1,4.4-4.4A4.4,4.4,0,0,1,75.46,35.65ZM35.87,5.12a4.44,4.44,0,0,1,2-.48,4.52,4.52,0,0,1,1.35.21,4.4,4.4,0,1,1-3.36.27ZM99.3,58.75a4.4,4.4,0,1,1,4.4-4.4A4.41,4.41,0,0,1,99.3,58.75Z" fill="#0091ff"/><path d="M143.86,26.39h0a1.57,1.57,0,0,1-.85,2.06,13.38,13.38,0,0,1-1.85.61,14.37,14.37,0,0,1-3.43.53,10.1,10.1,0,0,1-5.17-1.3,8.69,8.69,0,0,1-3.4-3.65A11.81,11.81,0,0,1,128,19.2a11.6,11.6,0,0,1,1.22-5.39,8.77,8.77,0,0,1,3.46-3.65,10.41,10.41,0,0,1,5.26-1.3,13.63,13.63,0,0,1,3.36.55,14.75,14.75,0,0,1,1.85.63,1.57,1.57,0,0,1,.85,2.05h0a1.58,1.58,0,0,1-2,.88c-.52-.19-1-.34-1.4-.46a10.31,10.31,0,0,0-2.7-.32,5.18,5.18,0,0,0-4.27,2,7.85,7.85,0,0,0-1.65,5,8.06,8.06,0,0,0,1.55,5.13,5.07,5.07,0,0,0,4.25,2,11.56,11.56,0,0,0,2.88-.32,12,12,0,0,0,1.24-.41A1.57,1.57,0,0,1,143.86,26.39Z" fill="#0091ff" stroke="#0091ff" stroke-linecap="round" stroke-miterlimit="10" stroke-width="0.91"/><path d="M161.78,23.26V11.34a2,2,0,0,1,1.95-1.95h0a1.94,1.94,0,0,1,1.94,1.95V27.52a1.54,1.54,0,0,1-1.53,1.54h0a1.54,1.54,0,0,1-1.49-1.14l-.38-1.46a14,14,0,0,1-3.57,2.33,9.39,9.39,0,0,1-3.94.92,5.7,5.7,0,0,1-4.76-2,8.43,8.43,0,0,1-1.56-5.35v-11a1.94,1.94,0,0,1,1.94-1.95h0a2,2,0,0,1,2,1.95V22a6.18,6.18,0,0,0,.71,3.27,2.77,2.77,0,0,0,2.53,1.11,6.47,6.47,0,0,0,3-.87A17.64,17.64,0,0,0,161.78,23.26Z" fill="#0091ff" stroke="#0091ff" stroke-linecap="round" stroke-miterlimit="10" stroke-width="0.91"/><path d="M184.71,10.16a8.58,8.58,0,0,1,3.38,3.67,12.25,12.25,0,0,1,1.18,5.54,11.23,11.23,0,0,1-1.22,5.35,8.75,8.75,0,0,1-3.44,3.59,10.22,10.22,0,0,1-5.15,1.28,8.18,8.18,0,0,1-2.37-.43,9.14,9.14,0,0,1-2.58-1.28l-.35.54a1.42,1.42,0,0,1-1.19.64h0a1.43,1.43,0,0,1-1.42-1.42v-25A1.94,1.94,0,0,1,173.28.68h0a1.94,1.94,0,0,1,2.16,1.93v7.47a13.07,13.07,0,0,1,2.17-.89,6.59,6.59,0,0,1,1.89-.33A10.15,10.15,0,0,1,184.71,10.16Zm-1,14.17a7.66,7.66,0,0,0,1.54-4.92,8.4,8.4,0,0,0-1.52-5.23,5.07,5.07,0,0,0-4.28-2,6,6,0,0,0-4.06,1.42V24.92a6.4,6.4,0,0,0,4.06,1.34A5.15,5.15,0,0,0,183.76,24.33Z" fill="#0091ff" stroke="#0091ff" stroke-linecap="round" stroke-miterlimit="10" stroke-width="0.91"/><path d="M194.68,12h0a1.69,1.69,0,0,1,1-2.16,14.48,14.48,0,0,1,1.69-.5,15.69,15.69,0,0,1,3.51-.51,8.9,8.9,0,0,1,4,.92,7.1,7.1,0,0,1,2.86,2.49,6.15,6.15,0,0,1,1,3.45V27.53a1.53,1.53,0,0,1-1.53,1.53h0a1.53,1.53,0,0,1-1.48-1.15l-.19-.72a10,10,0,0,1-2.67,1.67,7.89,7.89,0,0,1-3.09.68,7.11,7.11,0,0,1-5.11-1.68A5.94,5.94,0,0,1,193,23.38a5.46,5.46,0,0,1,2-4.48,8,8,0,0,1,5.25-1.6h4.66a6.48,6.48,0,0,0-.87-3.67A3.44,3.44,0,0,0,201,12.35a12.85,12.85,0,0,0-4.14.74A1.71,1.71,0,0,1,194.68,12Zm1.81,11.35a3.06,3.06,0,0,0,.85,2.17,3.16,3.16,0,0,0,2.43.91,5.73,5.73,0,0,0,2.76-.71,8.6,8.6,0,0,0,2.39-1.88v-4h-4.78a3.53,3.53,0,0,0-2.68,1A3.42,3.42,0,0,0,196.49,23.38Z" fill="#0091ff" stroke="#0091ff" stroke-linecap="round" stroke-miterlimit="10" stroke-width="0.91"/><path d="M218,15.74V27.88a1.18,1.18,0,0,1-1.17,1.18H215.3a1.17,1.17,0,0,1-1.17-1.18V10.57a1.17,1.17,0,0,1,1.17-1.18h.64a1.19,1.19,0,0,1,1.14.87h0a1.16,1.16,0,0,0,1.79.67,14,14,0,0,1,2.23-1.27A9.39,9.39,0,0,1,225,8.74a5.71,5.71,0,0,1,4.77,2,8.43,8.43,0,0,1,1.56,5.35v11.8a1.17,1.17,0,0,1-1.17,1.18h-1.55a1.17,1.17,0,0,1-1.17-1.18V16.45a6.18,6.18,0,0,0-.71-3.27,2.79,2.79,0,0,0-2.54-1.11,6.41,6.41,0,0,0-3,.87,17.76,17.76,0,0,0-2.78,1.89A1.17,1.17,0,0,0,218,15.74Z" fill="#0091ff" stroke="#0091ff" stroke-linecap="round" stroke-miterlimit="10" stroke-width="0.91"/><path d="M146,50.22h0a1.05,1.05,0,0,1-1.05,1.06H132a7.16,7.16,0,0,0,1.84,4.54,6.33,6.33,0,0,0,4.77,1.66,8.73,8.73,0,0,0,2.69-.38c.47-.16,1.06-.39,1.75-.69a1.6,1.6,0,0,1,2.12.83h0a1.61,1.61,0,0,1-.74,2.06,13.14,13.14,0,0,1-5.82,1.43c-3.44,0-6.07-.94-7.91-2.8A10.28,10.28,0,0,1,128,50.39,12.25,12.25,0,0,1,129.1,45a8.44,8.44,0,0,1,3.26-3.65,9.48,9.48,0,0,1,5-1.29,7.58,7.58,0,0,1,6.43,2.85A11.83,11.83,0,0,1,146,50.22ZM132.1,48.64h10.09q-.76-5.26-4.94-5.27a4.65,4.65,0,0,0-3.55,1.4A6.54,6.54,0,0,0,132.1,48.64Z" fill="#0091ff" stroke="#0091ff" stroke-linecap="round" stroke-miterlimit="10" stroke-width="0.91"/><path d="M154.12,46.37V58.29a2,2,0,0,1-2,2h0a2,2,0,0,1-1.95-2V42.11a1.54,1.54,0,0,1,1.54-1.54h0a1.54,1.54,0,0,1,1.48,1.14l.39,1.46a13.66,13.66,0,0,1,3.57-2.33,9.32,9.32,0,0,1,3.93-.92,5.68,5.68,0,0,1,4.76,2,8.39,8.39,0,0,1,1.57,5.35v11a2,2,0,0,1-2,2h0a2,2,0,0,1-1.95-2V47.63a6.11,6.11,0,0,0-.71-3.27,2.76,2.76,0,0,0-2.53-1.11,6.41,6.41,0,0,0-3,.87A17.31,17.31,0,0,0,154.12,46.37Z" fill="#0091ff" stroke="#0091ff" stroke-linecap="round" stroke-miterlimit="10" stroke-width="0.91"/><path d="M189.55,62a7.09,7.09,0,0,1-1.11,3.92,7.48,7.48,0,0,1-3.22,2.69,12,12,0,0,1-5.07,1,15.25,15.25,0,0,1-3.57-.55,14.54,14.54,0,0,1-2-.65,1.58,1.58,0,0,1-.86-2.08h0a1.59,1.59,0,0,1,2.06-.85c.66.27,1.2.48,1.62.62a8.41,8.41,0,0,0,2.62.34,6.59,6.59,0,0,0,4.05-1.15,3.89,3.89,0,0,0,1.54-3.31V59.39a10.65,10.65,0,0,1-2.27,1,7.13,7.13,0,0,1-2,.37,10.17,10.17,0,0,1-5.21-1.3,8.58,8.58,0,0,1-3.38-3.67,12.25,12.25,0,0,1-1.18-5.54,11.35,11.35,0,0,1,1.22-5.35,8.75,8.75,0,0,1,3.44-3.59,10.22,10.22,0,0,1,5.15-1.27,8.24,8.24,0,0,1,2.52.48A9.27,9.27,0,0,1,186.55,42l.37-.66a1.42,1.42,0,0,1,1.23-.72h0a1.4,1.4,0,0,1,1.4,1.41ZM183.68,57a6.44,6.44,0,0,0,1.94-1.26V44.91a6.07,6.07,0,0,0-2-1.17,6.84,6.84,0,0,0-2.34-.37,5.12,5.12,0,0,0-4.25,1.93,7.6,7.6,0,0,0-1.55,4.92,8.32,8.32,0,0,0,1.53,5.23,5,5,0,0,0,4.27,2A6.34,6.34,0,0,0,183.68,57Z" fill="#0091ff" stroke="#0091ff" stroke-linecap="round" stroke-miterlimit="10" stroke-width="0.91"/><path d="M197.18,37a2.29,2.29,0,0,1-1.71-.7,2.53,2.53,0,0,1,0-3.45,2.3,2.3,0,0,1,1.71-.71,2.42,2.42,0,0,1,1.74.71,2.4,2.4,0,0,1,0,3.45A2.41,2.41,0,0,1,197.18,37Zm2,5.5V58.27a2,2,0,0,1-2,2h0a2,2,0,0,1-2-2V42.54a2,2,0,0,1,2-2h0A2,2,0,0,1,199.21,42.54Z" fill="#0091ff" stroke="#0091ff" stroke-linecap="round" stroke-miterlimit="10" stroke-width="0.91"/><path d="M208.57,46.37V58.29a1.94,1.94,0,0,1-1.94,2h0a2,2,0,0,1-1.95-2V42.11a1.54,1.54,0,0,1,1.53-1.54h0a1.54,1.54,0,0,1,1.49,1.14l.39,1.46a13.77,13.77,0,0,1,3.56-2.33,9.39,9.39,0,0,1,3.94-.92,5.7,5.7,0,0,1,4.76,2,8.45,8.45,0,0,1,1.56,5.35v11a1.94,1.94,0,0,1-1.94,2h0a2,2,0,0,1-1.95-2V47.63a6.2,6.2,0,0,0-.71-3.27,2.77,2.77,0,0,0-2.53-1.11,6.41,6.41,0,0,0-3,.87A17.36,17.36,0,0,0,208.57,46.37Z" fill="#0091ff" stroke="#0091ff" stroke-linecap="round" stroke-miterlimit="10" stroke-width="0.91"/><path d="M244,50.22h0a1.05,1.05,0,0,1-1,1.06h-12.9a7.17,7.17,0,0,0,1.85,4.54,6.31,6.31,0,0,0,4.76,1.66,8.75,8.75,0,0,0,2.7-.38c.47-.16,1-.39,1.75-.69a1.6,1.6,0,0,1,2.12.83h0a1.6,1.6,0,0,1-.75,2.06,13.14,13.14,0,0,1-5.82,1.43c-3.43,0-6.07-.94-7.9-2.8A10.28,10.28,0,0,1,226,50.39a12.38,12.38,0,0,1,1.13-5.4,8.53,8.53,0,0,1,3.27-3.65,9.48,9.48,0,0,1,5-1.29,7.56,7.56,0,0,1,6.42,2.85A11.77,11.77,0,0,1,244,50.22Zm-13.87-1.58h10.1q-.77-5.26-5-5.27a4.63,4.63,0,0,0-3.54,1.4A6.55,6.55,0,0,0,230.14,48.64Z" fill="#0091ff" stroke="#0091ff" stroke-linecap="round" stroke-miterlimit="10" stroke-width="0.91"/><path d="M265.06,50.22h0A1.06,1.06,0,0,1,264,51.28H251.11A7.16,7.16,0,0,0,253,55.82a6.33,6.33,0,0,0,4.77,1.66,8.73,8.73,0,0,0,2.69-.38c.47-.16,1.06-.39,1.76-.69a1.59,1.59,0,0,1,2.11.83h0a1.61,1.61,0,0,1-.74,2.06,13.14,13.14,0,0,1-5.82,1.43c-3.44,0-6.07-.94-7.91-2.8a10.28,10.28,0,0,1-2.76-7.54,12.25,12.25,0,0,1,1.14-5.4,8.44,8.44,0,0,1,3.26-3.65,9.48,9.48,0,0,1,5-1.29,7.58,7.58,0,0,1,6.43,2.85A11.83,11.83,0,0,1,265.06,50.22Zm-13.87-1.58h10.1q-.78-5.26-5-5.27a4.65,4.65,0,0,0-3.55,1.4A6.54,6.54,0,0,0,251.19,48.64Z" fill="#0091ff" stroke="#0091ff" stroke-linecap="round" stroke-miterlimit="10" stroke-width="0.91"/><path d="M273.21,47.22V58.29a2,2,0,0,1-1.95,2h0a2,2,0,0,1-1.95-2V41.87a1.31,1.31,0,0,1,1.31-1.3h0a1.31,1.31,0,0,1,1.21.83l.93,2.38A17.9,17.9,0,0,1,276,41.59a9.76,9.76,0,0,1,1.67-.73,1.59,1.59,0,0,1,2,1.11h0a1.59,1.59,0,0,1-1.09,2,10,10,0,0,0-1.93.8A15.93,15.93,0,0,0,273.21,47.22Z" fill="#0091ff" stroke="#0091ff" stroke-linecap="round" stroke-miterlimit="10" stroke-width="0.91"/></g></g></svg>